<?xml version="1.0" encoding="UTF-8"?>
<svg id="a" xmlns="http://www.w3.org/2000/svg" viewBox="0 0 1143.4 104.12">
  <g>
    <path
      d="M0,103.25l20.71-53.64L1.58.86h15.53l11.07,30.34L39.4.86h15.53l-19.56,48.75,21.14,53.64h-15.53l-12.8-34.51-12.66,34.51H0Z" />
    <path
      d="M89.88,103.25V.86h21.71c8.44,0,14.83,2.3,19.2,6.9,4.36,4.6,6.54,11.12,6.54,19.56v47.89c0,9.59-2.33,16.66-6.97,21.21-4.65,4.55-11.34,6.83-20.06,6.83h-20.42ZM104.55,14.67v74.78h6.76c4.12,0,7.05-1.03,8.77-3.09,1.73-2.06,2.59-5.3,2.59-9.71V27.32c0-4.03-.82-7.14-2.44-9.35-1.63-2.2-4.6-3.31-8.92-3.31h-6.76Z" />
    <path
      d="M151.14,103.25V.86h43.72v13.81h-29.05v30.06h25.31v13.8h-25.31v30.06h29.05v14.67h-43.72Z" />
    <path
      d="M251.8,30.34h-14.67v-3.31c0-3.35-.79-6.26-2.37-8.7-1.58-2.45-4.24-3.67-7.98-3.67-2.01,0-3.64.38-4.89,1.15-1.25.77-2.25,1.73-3.02,2.88-.77,1.25-1.29,2.66-1.58,4.24s-.43,3.24-.43,4.96c0,2.01.07,3.69.22,5.03.14,1.34.5,2.54,1.08,3.6.58,1.06,1.41,1.97,2.52,2.73,1.1.77,2.61,1.53,4.53,2.3l11.22,4.46c3.26,1.25,5.9,2.71,7.91,4.39,2.01,1.68,3.6,3.62,4.75,5.82,1.05,2.3,1.77,4.91,2.16,7.84.38,2.93.58,6.26.58,9.99,0,4.31-.43,8.32-1.29,12.01-.86,3.69-2.25,6.83-4.17,9.42-2.01,2.69-4.65,4.79-7.91,6.33-3.26,1.53-7.24,2.3-11.94,2.3-3.55,0-6.86-.62-9.92-1.87-3.07-1.25-5.71-2.97-7.91-5.18-2.21-2.2-3.95-4.77-5.25-7.69-1.29-2.92-1.94-6.11-1.94-9.56v-5.46h14.67v4.6c0,2.69.79,5.11,2.37,7.26s4.24,3.24,7.98,3.24c2.49,0,4.43-.36,5.82-1.08,1.39-.72,2.47-1.75,3.24-3.09.77-1.34,1.22-2.95,1.37-4.82.14-1.87.22-3.95.22-6.25,0-2.68-.1-4.89-.29-6.62-.19-1.73-.58-3.11-1.15-4.17-.67-1.05-1.56-1.92-2.66-2.59-1.1-.67-2.57-1.39-4.39-2.16l-10.5-4.31c-6.33-2.59-10.57-6.01-12.73-10.28-2.16-4.26-3.24-9.61-3.24-16.03,0-3.83.53-7.48,1.58-10.93,1.05-3.45,2.64-6.42,4.75-8.92,2.01-2.49,4.58-4.48,7.69-5.97,3.11-1.49,6.83-2.23,11.15-2.23,3.64,0,6.97.67,9.99,2.01,3.02,1.34,5.63,3.12,7.84,5.32,4.41,4.6,6.62,9.88,6.62,15.82v7.19Z" />
    <path d="M263.16,103.25V.86h14.67v102.39h-14.67Z" />
    <path
      d="M291.2,25.02c0-4.12.72-7.77,2.16-10.93,1.44-3.16,3.35-5.8,5.75-7.91,2.3-2.01,4.91-3.55,7.84-4.6,2.92-1.05,5.87-1.58,8.84-1.58s5.92.53,8.84,1.58c2.92,1.06,5.58,2.59,7.98,4.6,2.3,2.11,4.17,4.75,5.61,7.91,1.44,3.16,2.16,6.81,2.16,10.93v5.18h-14.67v-5.18c0-3.55-.98-6.16-2.95-7.84-1.97-1.68-4.29-2.52-6.98-2.52s-5.01.84-6.97,2.52c-1.97,1.68-2.95,4.29-2.95,7.84v54.07c0,3.55.98,6.16,2.95,7.84,1.96,1.68,4.29,2.52,6.97,2.52s5.01-.84,6.98-2.52c1.96-1.68,2.95-4.29,2.95-7.84v-19.27h-11.65v-12.94h26.32v32.21c0,4.31-.72,8.01-2.16,11.07-1.44,3.07-3.31,5.61-5.61,7.62-2.4,2.11-5.06,3.69-7.98,4.75-2.93,1.05-5.87,1.58-8.84,1.58s-5.92-.53-8.84-1.58c-2.93-1.05-5.54-2.64-7.84-4.75-2.4-2.01-4.31-4.55-5.75-7.62-1.44-3.07-2.16-6.76-2.16-11.07V25.02Z" />
    <path
      d="M352.75,103.25V.86h14.09l22.15,61.69h.29V.86h14.67v102.39h-13.81l-22.43-61.55h-.29v61.55h-14.67Z" />
    <path
      d="M417.18,103.25V.86h43.72v13.81h-29.05v30.06h25.31v13.8h-25.31v30.06h29.05v14.67h-43.72Z" />
    <path
      d="M470.38,103.25V.86h23.58c17.26,0,25.89,10.02,25.89,30.06,0,6.04-.94,11.17-2.8,15.39-1.87,4.22-5.15,7.62-9.85,10.21l15.82,46.74h-15.53l-13.66-43.72h-8.77v43.72h-14.67ZM485.05,14.67v31.92h8.34c2.59,0,4.65-.36,6.18-1.08,1.53-.72,2.73-1.75,3.6-3.09.77-1.34,1.29-3,1.58-4.96.29-1.96.43-4.24.43-6.83s-.14-4.86-.43-6.83c-.29-1.96-.86-3.67-1.73-5.1-1.82-2.68-5.27-4.03-10.35-4.03h-7.62Z" />
    <path
      d="M579.1,30.34h-14.67v-3.31c0-3.35-.79-6.26-2.37-8.7-1.58-2.45-4.24-3.67-7.98-3.67-2.01,0-3.64.38-4.89,1.15-1.25.77-2.25,1.73-3.02,2.88-.77,1.25-1.29,2.66-1.58,4.24-.29,1.58-.43,3.24-.43,4.96,0,2.01.07,3.69.22,5.03.14,1.34.5,2.54,1.08,3.6.58,1.06,1.41,1.97,2.52,2.73,1.1.77,2.61,1.53,4.53,2.3l11.22,4.46c3.26,1.25,5.9,2.71,7.91,4.39,2.01,1.68,3.59,3.62,4.75,5.82,1.05,2.3,1.77,4.91,2.16,7.84.38,2.93.58,6.26.58,9.99,0,4.31-.43,8.32-1.29,12.01-.86,3.69-2.25,6.83-4.17,9.42-2.01,2.69-4.65,4.79-7.91,6.33-3.26,1.53-7.24,2.3-11.94,2.3-3.55,0-6.86-.62-9.92-1.87-3.07-1.25-5.71-2.97-7.91-5.18-2.21-2.2-3.95-4.77-5.25-7.69-1.29-2.92-1.94-6.11-1.94-9.56v-5.46h14.67v4.6c0,2.69.79,5.11,2.37,7.26,1.58,2.16,4.24,3.24,7.98,3.24,2.49,0,4.43-.36,5.82-1.08,1.39-.72,2.47-1.75,3.24-3.09.77-1.34,1.22-2.95,1.37-4.82.14-1.87.22-3.95.22-6.25,0-2.68-.1-4.89-.29-6.62-.19-1.73-.58-3.11-1.15-4.17-.67-1.05-1.56-1.92-2.66-2.59-1.1-.67-2.57-1.39-4.39-2.16l-10.5-4.31c-6.33-2.59-10.57-6.01-12.73-10.28-2.16-4.26-3.24-9.61-3.24-16.03,0-3.83.53-7.48,1.58-10.93,1.05-3.45,2.64-6.42,4.75-8.92,2.01-2.49,4.58-4.48,7.69-5.97,3.11-1.49,6.83-2.23,11.15-2.23,3.64,0,6.97.67,9.99,2.01,3.02,1.34,5.63,3.12,7.84,5.32,4.41,4.6,6.62,9.88,6.62,15.82v7.19Z" />
    <path
      d="M663.37,74.06v6.33c0,3.16-.6,6.16-1.8,8.99-1.2,2.83-2.85,5.35-4.96,7.55-2.11,2.21-4.58,3.95-7.41,5.25-2.83,1.29-5.87,1.94-9.13,1.94-2.78,0-5.61-.38-8.48-1.15-2.88-.77-5.46-2.11-7.77-4.03-2.3-1.92-4.2-4.39-5.68-7.41-1.49-3.02-2.23-6.88-2.23-11.58V23.58c0-3.36.58-6.47,1.73-9.35s2.78-5.37,4.89-7.48,4.62-3.76,7.55-4.96c2.92-1.2,6.16-1.8,9.71-1.8,6.9,0,12.51,2.25,16.83,6.76,2.11,2.21,3.76,4.82,4.96,7.84,1.2,3.02,1.8,6.3,1.8,9.85v5.75h-14.67v-4.89c0-2.88-.82-5.37-2.44-7.48-1.63-2.11-3.84-3.16-6.62-3.16-3.64,0-6.07,1.13-7.26,3.38-1.2,2.25-1.8,5.11-1.8,8.56v52.35c0,2.97.65,5.46,1.94,7.48,1.29,2.01,3.62,3.02,6.97,3.02.96,0,1.99-.17,3.09-.5,1.1-.33,2.13-.89,3.09-1.65.86-.77,1.58-1.82,2.16-3.16.58-1.34.86-3.02.86-5.03v-5.03h14.67Z" />
    <path
      d="M668.69,103.25L691.56.86h12.22l22.87,102.39h-14.67l-4.31-22h-19.99l-4.31,22h-14.67ZM704.93,67.45l-7.19-37.1h-.29l-7.19,37.1h14.67Z" />
    <path
      d="M733.84,103.25V.86h23.58c17.26,0,25.89,10.02,25.89,30.06,0,6.04-.94,11.17-2.8,15.39-1.87,4.22-5.15,7.62-9.85,10.21l15.82,46.74h-15.53l-13.66-43.72h-8.77v43.72h-14.67ZM748.51,14.67v31.92h8.34c2.59,0,4.65-.36,6.18-1.08,1.53-.72,2.73-1.75,3.6-3.09.77-1.34,1.29-3,1.58-4.96.29-1.96.43-4.24.43-6.83s-.14-4.86-.43-6.83c-.29-1.96-.86-3.67-1.73-5.1-1.82-2.68-5.27-4.03-10.35-4.03h-7.62Z" />
    <path d="M795.1,103.25V.86h43.72v13.81h-29.05v30.06h25.31v13.8h-25.31v30.06h29.05v14.67h-43.72Z" />
    <path
      d="M848.31,103.25V.86h43.72v13.81h-29.05v30.06h25.31v13.8h-25.31v30.06h29.05v14.67h-43.72Z" />
    <path
      d="M901.51,103.25V.86h23.58c17.26,0,25.89,10.02,25.89,30.06,0,6.04-.94,11.17-2.8,15.39-1.87,4.22-5.15,7.62-9.85,10.21l15.82,46.74h-15.53l-13.66-43.72h-8.77v43.72h-14.67ZM916.18,14.67v31.92h8.34c2.59,0,4.65-.36,6.18-1.08,1.53-.72,2.73-1.75,3.6-3.09.77-1.34,1.29-3,1.58-4.96.29-1.96.43-4.24.43-6.83s-.14-4.86-.43-6.83c-.29-1.96-.86-3.67-1.73-5.1-1.82-2.68-5.27-4.03-10.35-4.03h-7.62Z" />
    <path d="M989.52,103.25V.86h43.72v13.81h-29.05v31.06h25.31v13.8h-25.31v43.72h-14.67Z" />
    <path
      d="M1042.73,103.25V.86h43.72v13.81h-29.05v30.06h25.31v13.8h-25.31v30.06h29.05v14.67h-43.72Z" />
    <path
      d="M1143.4,30.34h-14.67v-3.31c0-3.35-.79-6.26-2.37-8.7-1.58-2.45-4.24-3.67-7.98-3.67-2.01,0-3.64.38-4.89,1.15-1.25.77-2.25,1.73-3.02,2.88-.77,1.25-1.29,2.66-1.58,4.24-.29,1.58-.43,3.24-.43,4.96,0,2.01.07,3.69.22,5.03.14,1.34.5,2.54,1.08,3.6.58,1.06,1.41,1.97,2.52,2.73,1.1.77,2.61,1.53,4.53,2.3l11.22,4.46c3.26,1.25,5.9,2.71,7.91,4.39,2.01,1.68,3.59,3.62,4.75,5.82,1.05,2.3,1.77,4.91,2.16,7.84.38,2.93.58,6.26.58,9.99,0,4.31-.43,8.32-1.29,12.01-.86,3.69-2.25,6.83-4.17,9.42-2.01,2.69-4.65,4.79-7.91,6.33-3.26,1.53-7.24,2.3-11.94,2.3-3.55,0-6.86-.62-9.92-1.87-3.07-1.25-5.71-2.97-7.91-5.18-2.21-2.2-3.95-4.77-5.25-7.69-1.29-2.92-1.94-6.11-1.94-9.56v-5.46h14.67v4.6c0,2.69.79,5.11,2.37,7.26,1.58,2.16,4.24,3.24,7.98,3.24,2.49,0,4.43-.36,5.82-1.08,1.39-.72,2.47-1.75,3.24-3.09.77-1.34,1.22-2.95,1.37-4.82.14-1.87.22-3.95.22-6.25,0-2.68-.1-4.89-.29-6.62-.19-1.73-.58-3.11-1.15-4.17-.67-1.05-1.56-1.92-2.66-2.59-1.1-.67-2.57-1.39-4.39-2.16l-10.5-4.31c-6.33-2.59-10.57-6.01-12.73-10.28-2.16-4.26-3.24-9.61-3.24-16.03,0-3.83.53-7.48,1.58-10.93,1.05-3.45,2.64-6.42,4.75-8.92,2.01-2.49,4.58-4.48,7.69-5.97,3.11-1.49,6.83-2.23,11.15-2.23,3.64,0,6.97.67,9.99,2.01,3.02,1.34,5.63,3.12,7.84,5.32,4.41,4.6,6.62,9.88,6.62,15.82v7.19Z" />
  </g>
  <rect x="299.2" y="25.56" width="545" height="53"
    style="stroke: var(--background); stroke-miterlimit: 10; stroke-width: 5px;" />
  <g>
    <path
      d="M392.03,44.78v-6.86h26.62v6.86c-1.41,3.52-3.44,6.88-6.07,10.06,3.8,3.33,7.21,6.42,10.23,9.27l-5.2,5.41c-3.08-2.97-6.47-6.09-10.19-9.36-4.85,4.27-10.33,7.39-16.43,9.36l-3.12-6.45c5.05-1.75,9.6-4.34,13.66-7.78,4.06-3.44,6.84-6.95,8.34-10.52h-17.84Z"
      style="fill: var(--background);" />
    <path
      d="M442.77,62.66c5.43,0,11.19-.21,17.26-.62l.21,6.86c-6.49.42-12.66.62-18.51.62-3.69,0-6.27-.75-7.76-2.25-1.48-1.5-2.23-4.21-2.23-8.15v-21.63h8.11v10.61c5.3-1.03,10.2-2.26,14.72-3.7-1.22-1.22-1.83-2.69-1.83-4.41s.61-3.19,1.83-4.41,2.69-1.83,4.41-1.83,3.19.61,4.41,1.83c1.22,1.22,1.83,2.69,1.83,4.41,0,1.55-.5,2.9-1.5,4.06-1,1.15-2.25,1.85-3.74,2.1l1.08,3.41c-6.88,2.44-13.95,4.31-21.21,5.61v4.37c0,1.3.19,2.15.56,2.54.37.39,1.16.58,2.35.58ZM460.9,41.91c.53-.53.79-1.16.79-1.91s-.26-1.39-.79-1.91c-.53-.53-1.16-.79-1.91-.79s-1.39.26-1.91.79-.79,1.16-.79,1.91.26,1.39.79,1.91c.53.53,1.16.79,1.91.79s1.39-.26,1.91-.79Z"
      style="fill: var(--background);" />
    <path
      d="M488.73,44.36l-4.16,6.24c-3.88-2.61-7.9-5.1-12.06-7.49l3.95-6.24c4.13,2.27,8.22,4.77,12.27,7.49ZM499.12,41.24l7.28,2.08c-1.89,8.29-5.33,14.49-10.33,18.61-5.01,4.12-12.17,6.58-21.48,7.38l-1.04-7.28c7.62-.78,13.33-2.71,17.11-5.8,3.78-3.09,6.61-8.09,8.46-14.99Z"
      style="fill: var(--background);" />
    <path
      d="M524.91,69.32l.42-6.65c2.72.28,4.59.42,5.61.42.67,0,1.07-.07,1.23-.21.15-.14.23-.55.23-1.25v-6.78c-5.07,4.19-10.2,7.76-15.39,10.73l-3.74-5.82c5.66-3.1,11.37-7.13,17.13-12.06h-16.93v-6.65h18.92v-5.82h7.69v5.82h7.49v6.65h-7.49v13.72c0,1.41-.02,2.52-.06,3.33-.04.8-.18,1.55-.42,2.25-.24.69-.5,1.19-.79,1.5-.29.3-.8.57-1.52.79-.72.22-1.47.35-2.25.4-.78.04-1.87.06-3.29.06-1.52,0-3.81-.14-6.86-.42Z"
      style="fill: var(--background);" />
    <path
      d="M556.31,44.78v-6.86h31.19v6.86c-1.16,7.54-3.88,13.24-8.13,17.09-4.26,3.85-10.49,6.27-18.69,7.24l-1.66-6.86c6.13-.86,10.83-2.7,14.12-5.51,3.29-2.81,5.36-6.8,6.22-11.96h-23.04Z"
      style="fill: var(--background);" />
    <path
      d="M596.03,51.43c5.54-1.16,10.83-3.04,15.87-5.64,5.03-2.59,9.45-5.7,13.25-9.34l5.41,5.41c-3.33,3.24-7.21,6.16-11.65,8.73v19.13h-8.11v-15.14c-4.3,1.77-8.67,3.08-13.1,3.91l-1.66-7.07Z"
      style="fill: var(--background);" />
    <path
      d="M674.84,62.87l-5.82,5.82c-4.69-4.77-9.25-9.75-13.68-14.93-1.3-1.52-2.21-2.54-2.72-3.04-.51-.5-.94-.75-1.27-.75-.28,0-.64.29-1.08.87-.44.58-1.12,1.64-2.04,3.16-1.55,2.55-3.84,5.99-6.86,10.31l-6.45-4.37c2.47-3.52,4.77-6.86,6.9-10.02,1.08-1.61,1.84-2.73,2.27-3.37.43-.64.97-1.37,1.62-2.2.65-.83,1.1-1.34,1.35-1.54.25-.19.64-.43,1.19-.71.54-.28,1-.42,1.39-.44.39-.01.96-.02,1.71-.02s1.3,0,1.66.02c.36.01.81.11,1.35.29.54.18.94.35,1.19.52.25.17.7.55,1.35,1.16.65.61,1.21,1.17,1.68,1.68.47.51,1.26,1.39,2.37,2.64,5.6,6.18,10.23,11.15,13.89,14.89ZM667.35,43.57l-4.66,2.25c-1.11-2.16-2.4-4.56-3.87-7.2l4.66-2.37c1.25,2.27,2.54,4.71,3.87,7.32ZM674.72,42.08l-4.78,2.29c-1.16-2.3-2.48-4.76-3.95-7.36l4.78-2.41c1.77,3.27,3.09,5.77,3.95,7.49Z"
      style="fill: var(--background);" />
    <path
      d="M696.68,44.36l-4.16,6.24c-3.88-2.61-7.9-5.1-12.06-7.49l3.95-6.24c4.13,2.27,8.22,4.77,12.27,7.49ZM707.07,41.24l7.28,2.08c-1.89,8.29-5.33,14.49-10.33,18.61-5.01,4.12-12.17,6.58-21.48,7.38l-1.04-7.28c7.62-.78,13.33-2.71,17.11-5.8,3.78-3.09,6.61-8.09,8.46-14.99Z"
      style="fill: var(--background);" />
    <path
      d="M753.86,53.31l-2.7,6.65c-4.82-2-9.88-3.73-15.18-5.2v15.6h-8.11v-34.1h8.11v11.02c6.1,1.61,12.06,3.62,17.88,6.03Z"
      style="fill: var(--background);" />
  </g>
</svg>